<svg width="18" height="20" viewBox="0 0 18 20" fill="none" xmlns="http://www.w3.org/2000/svg">
<path d="M2.81312 17.668C0.738897 15.5234 0.774054 12.1133 2.84827 10.0039L10.2311 2.44531C11.778 0.863281 14.3092 0.863281 15.8912 2.44531C17.403 4.02734 17.4381 6.59375 15.8912 8.17578L9.45765 14.75C8.40296 15.8047 6.6803 15.8047 5.66077 14.7148C4.64124 13.6602 4.6764 11.9727 5.69593 10.9531L10.7584 5.78516C10.9694 5.57422 11.3209 5.53906 11.567 5.78516L12.3405 6.55859C12.5866 6.76953 12.5866 7.12109 12.3756 7.36719L7.31312 12.5C7.13733 12.6758 7.13733 12.9922 7.27796 13.168C7.45374 13.3086 7.69983 13.3086 7.84046 13.168L14.2741 6.59375C14.942 5.89062 14.942 4.73047 14.2741 4.02734C13.6061 3.35938 12.5162 3.35938 11.8483 4.02734L4.46546 11.5859C3.23499 12.8164 3.23499 14.8555 4.4303 16.0859C5.62562 17.3164 7.55921 17.3164 8.75452 16.0859L14.8014 9.89844C15.0123 9.6875 15.3639 9.6875 15.5748 9.89844L16.3834 10.707C16.6295 10.918 16.6295 11.2695 16.4186 11.4805L10.3717 17.668C8.26233 19.8125 4.88733 19.7773 2.81312 17.668Z" fill="#9D9D9D"/>
</svg>
