<svg width="100" height="100" viewBox="0 0 100 100" fill="none" xmlns="http://www.w3.org/2000/svg">
<path fill-rule="evenodd" clip-rule="evenodd" d="M68.8103 13.5916C68.8062 11.7339 67.4075 10.3406 65.6386 10.3449C63.8284 10.3491 62.4709 11.7424 62.475 13.6L62.4791 16.5555L38.0427 16.5892L38.0386 13.6338C38.0345 11.7761 36.6769 10.3829 34.8668 10.3871C33.0567 10.3871 31.6992 11.7846 31.7033 13.6423L31.7074 16.8088C20.2297 17.877 12.9152 25.7848 12.9317 38.0244L12.9769 69.2446C12.9934 82.5397 21.3116 90.8909 34.3979 90.8741L63.4292 90.8359C57.7572 87.2786 54.0001 81.0675 54.0001 74.0001C54.0001 69.7613 55.3517 65.8305 57.6573 62.5956C57.1971 62.2673 56.8971 61.7291 56.8971 61.1208V55.2587C56.8971 54.2589 57.7076 53.4484 58.7074 53.4484H64.5695C65.5693 53.4484 66.3799 54.2589 66.3799 55.2587V55.6304C68.8699 54.5814 71.6154 54.0001 74.5001 54.0001C79.6308 54.0001 84.3211 55.8388 87.9166 58.8776L87.8863 37.7585C87.874 25.599 80.2921 17.6701 68.8145 16.7581L68.8103 13.5916ZM38.051 23.0912L62.4873 23.0574L62.4914 26.4772C62.4914 28.2927 63.8531 29.7282 65.6632 29.7239C67.4322 29.7239 68.8268 28.2842 68.8268 26.4688L68.8227 23.2178C76.8859 23.9271 81.3782 28.6896 81.5551 37.7669V39.2446L19.2712 39.329L19.267 38.016C19.2547 28.8584 23.6936 24.0791 31.7156 23.2643L31.7197 26.5152C31.7197 28.3349 33.0814 29.7662 34.8915 29.7619C36.7016 29.7619 38.0551 28.3265 38.0551 26.5068L38.051 23.0912ZM22.4142 55.2587C22.4142 54.2589 23.2247 53.4484 24.2245 53.4484H30.0866C31.0864 53.4484 31.8969 54.2589 31.8969 55.2587V61.1208C31.8969 62.1206 31.0864 62.9311 30.0866 62.9311H24.2245C23.2247 62.9311 22.4142 62.1206 22.4142 61.1208V55.2587ZM24.2245 68.9659C23.2247 68.9659 22.4142 69.7765 22.4142 70.7763V76.6384C22.4142 77.6382 23.2247 78.4487 24.2245 78.4487H30.0866C31.0864 78.4487 31.8969 77.6382 31.8969 76.6384V70.7763C31.8969 69.7765 31.0864 68.9659 30.0866 68.9659H24.2245ZM39.6559 55.2587C39.6559 54.2589 40.4664 53.4484 41.4662 53.4484H47.3283C48.3281 53.4484 49.1386 54.2589 49.1386 55.2587V61.1208C49.1386 62.1206 48.3281 62.9311 47.3283 62.9311H41.4662C40.4664 62.9311 39.6559 62.1206 39.6559 61.1208V55.2587ZM41.4662 68.9659C40.4664 68.9659 39.6559 69.7765 39.6559 70.7763V76.6384C39.6559 77.6382 40.4664 78.4487 41.4662 78.4487H47.3283C48.3281 78.4487 49.1386 77.6382 49.1386 76.6384V70.7763C49.1386 69.7765 48.3281 68.9659 47.3283 68.9659H41.4662Z" fill="#FDF9F5"/>
<path fill-rule="evenodd" clip-rule="evenodd" d="M74.5693 57.7589C65.2849 57.7589 57.7589 65.0919 57.7589 74.1382C57.7589 83.1845 65.2849 90.5175 74.5693 90.5175C83.8536 90.5175 91.3796 83.1845 91.3796 74.1382C91.3796 65.0919 83.8536 57.7589 74.5693 57.7589ZM76.8105 67.2411C76.8105 66.2413 76 65.4308 75.0002 65.4308C74.0003 65.4308 73.1898 66.2413 73.1898 67.2411V75.6635C73.1898 76.3781 73.6102 77.0258 74.2628 77.3169L78.5731 79.2393C79.4862 79.6466 80.5566 79.2365 80.9639 78.3234C81.3711 77.4102 80.961 76.3399 80.0479 75.9326L76.8105 74.4887V67.2411Z" fill="#FDF9F5"/>
</svg>
