<svg width="17" height="17" viewBox="0 0 17 17" fill="none" xmlns="http://www.w3.org/2000/svg">
<path fill-rule="evenodd" clip-rule="evenodd" d="M3.4624 0H13.0624V3.6H3.4624V0ZM2.66025 4.5H13.8603C15.1883 4.5 16.2603 5.706 16.2603 7.2V12.6H13.0603V16.2H3.46025V12.6H0.260254V7.2C0.260254 5.706 1.33225 4.5 2.66025 4.5ZM5.05923 14.4H11.4592V9.90002H5.05923V14.4ZM13.8575 8.10005C13.4175 8.10005 13.0575 7.69505 13.0575 7.20005C13.0575 6.70505 13.4175 6.30005 13.8575 6.30005C14.2975 6.30005 14.6575 6.70505 14.6575 7.20005C14.6575 7.69505 14.2975 8.10005 13.8575 8.10005Z" fill="#202224"/>
</svg>
