<svg width="19" height="18" viewBox="0 0 19 18" fill="none" xmlns="http://www.w3.org/2000/svg">
<path fill-rule="evenodd" clip-rule="evenodd" d="M10.0971 1.31697L12.4763 6.03091L17.0556 6.48459C17.2782 6.50309 17.4697 6.6494 17.546 6.85931C17.6224 7.06923 17.5697 7.30441 17.4111 7.46165L13.6425 11.1971L15.0397 16.273C15.0981 16.4929 15.0221 16.7266 14.8455 16.8701C14.6689 17.0136 14.4246 17.0401 14.2213 16.9379L9.57879 14.6389L4.9427 16.935C4.73943 17.0373 4.4951 17.0107 4.3185 16.8673C4.1419 16.7238 4.06588 16.4901 4.12427 16.2701L5.5215 11.1943L1.75005 7.45881C1.5914 7.30156 1.53871 7.06639 1.61509 6.85647C1.69147 6.64655 1.88298 6.50025 2.10558 6.48175L6.68479 6.02806L9.06043 1.31697C9.16004 1.1224 9.36021 1 9.57879 1C9.79736 1 9.99753 1.1224 10.0971 1.31697Z" stroke="#202224" stroke-width="1.2" stroke-linecap="round" stroke-linejoin="round"/>
</svg>
