<svg width="15" height="18" viewBox="0 0 15 18" fill="none" xmlns="http://www.w3.org/2000/svg">
<path d="M5.67383 2.1875C6.04622 1.27083 6.64779 0.8125 7.47852 0.8125C8.30924 0.8125 8.91081 1.27083 9.2832 2.1875H10.916H11.6035H13.666H14.3535V2.875V17.3125V18H13.666H1.29102H0.603516V17.3125V2.875V2.1875H1.29102H3.35352H4.04102H5.67383ZM7.95117 2.40234C7.83659 2.25911 7.67904 2.1875 7.47852 2.1875C7.27799 2.1875 7.10612 2.25911 6.96289 2.40234C6.84831 2.51693 6.79102 2.67448 6.79102 2.875V3.5625H6.10352H4.72852V4.9375H10.2285V3.5625H8.85352H8.16602V2.875C8.16602 2.67448 8.0944 2.51693 7.95117 2.40234ZM1.97852 3.5625V16.625H12.9785V3.5625H11.6035V5.625V6.3125H10.916H4.04102H3.35352V5.625V3.5625H1.97852Z" fill="#202224"/>
</svg>
