<svg width="15" height="19" viewBox="0 0 15 19" fill="none" xmlns="http://www.w3.org/2000/svg">
<path d="M14.3657 4.53906V4.75H9.86565V0.25H10.0766C10.2875 0.25 10.4985 0.355469 10.6742 0.53125L14.0844 3.94141C14.2602 4.11719 14.3657 4.32812 14.3657 4.53906ZM9.5844 5.875H14.3657V17.4062C14.3657 17.8984 13.9789 18.25 13.5219 18.25H1.7094C1.21721 18.25 0.865652 17.8984 0.865652 17.4062V1.09375C0.865652 0.636719 1.21721 0.25 1.7094 0.25H8.74065V5.03125C8.74065 5.52344 9.09221 5.875 9.5844 5.875ZM4.80315 6.4375C3.88909 6.4375 3.11565 7.21094 3.11565 8.125C3.11565 9.07422 3.88909 9.8125 4.80315 9.8125C5.75237 9.8125 6.49065 9.07422 6.49065 8.125C6.49065 7.21094 5.75237 6.4375 4.80315 6.4375ZM12.1157 14.875V10.9375L10.7446 9.56641C10.5688 9.39062 10.2875 9.39062 10.1469 9.56641L6.49065 13.1875L5.11956 11.8164C4.94378 11.6406 4.69768 11.6406 4.5219 11.7812L3.15081 13.1875L3.11565 14.875H12.1157Z" fill="#9D9D9D"/>
</svg>
