<svg width="21" height="13" viewBox="0 0 21 13" fill="none" xmlns="http://www.w3.org/2000/svg">
<path d="M2.74414 1.76562C3.54622 0.963542 4.52018 0.5625 5.66602 0.5625C6.81185 0.5625 7.78581 0.963542 8.58789 1.76562C9.38997 2.56771 9.79102 3.54167 9.79102 4.6875C9.79102 6.09115 9.2181 7.20833 8.07227 8.03906C9.13216 8.55469 9.93424 9.29948 10.4785 10.2734C11.0228 9.29948 11.8249 8.55469 12.8848 8.03906C11.7389 7.20833 11.166 6.09115 11.166 4.6875C11.166 3.54167 11.5671 2.56771 12.3691 1.76562C13.1712 0.963542 14.1452 0.5625 15.291 0.5625C16.4368 0.5625 17.4108 0.963542 18.2129 1.76562C19.015 2.56771 19.416 3.54167 19.416 4.6875C19.416 6.09115 18.8431 7.20833 17.6973 8.03906C18.6426 8.4974 19.3874 9.17057 19.9316 10.0586C20.5046 10.918 20.791 11.8776 20.791 12.9375H19.416C19.416 11.7917 19.015 10.8177 18.2129 10.0156C17.4108 9.21354 16.4368 8.8125 15.291 8.8125C14.1452 8.8125 13.1712 9.21354 12.3691 10.0156C11.5671 10.8177 11.166 11.7917 11.166 12.9375H9.79102C9.79102 11.7917 9.38997 10.8177 8.58789 10.0156C7.78581 9.21354 6.81185 8.8125 5.66602 8.8125C4.52018 8.8125 3.54622 9.21354 2.74414 10.0156C1.94206 10.8177 1.54102 11.7917 1.54102 12.9375H0.166016C0.166016 11.8776 0.438151 10.918 0.982422 10.0586C1.55534 9.17057 2.31445 8.4974 3.25977 8.03906C2.11393 7.20833 1.54102 6.09115 1.54102 4.6875C1.54102 3.54167 1.94206 2.56771 2.74414 1.76562ZM7.59961 2.75391C7.08398 2.20964 6.43945 1.9375 5.66602 1.9375C4.89258 1.9375 4.23372 2.20964 3.68945 2.75391C3.17383 3.26953 2.91602 3.91406 2.91602 4.6875C2.91602 5.46094 3.17383 6.11979 3.68945 6.66406C4.23372 7.17969 4.89258 7.4375 5.66602 7.4375C6.43945 7.4375 7.08398 7.17969 7.59961 6.66406C8.14388 6.11979 8.41602 5.46094 8.41602 4.6875C8.41602 3.91406 8.14388 3.26953 7.59961 2.75391ZM17.2246 2.75391C16.709 2.20964 16.0645 1.9375 15.291 1.9375C14.5176 1.9375 13.8587 2.20964 13.3145 2.75391C12.7988 3.26953 12.541 3.91406 12.541 4.6875C12.541 5.46094 12.7988 6.11979 13.3145 6.66406C13.8587 7.17969 14.5176 7.4375 15.291 7.4375C16.0645 7.4375 16.709 7.17969 17.2246 6.66406C17.7689 6.11979 18.041 5.46094 18.041 4.6875C18.041 3.91406 17.7689 3.26953 17.2246 2.75391Z" fill="#202224"/>
</svg>
