<svg width="14" height="19" viewBox="0 0 14 19" fill="none" xmlns="http://www.w3.org/2000/svg">
<path d="M7.10725 12.625C5.20881 12.625 3.73225 11.1484 3.73225 9.25V3.625C3.73225 1.76172 5.20881 0.25 7.10725 0.25C8.97053 0.25 10.4823 1.76172 10.4823 3.625V9.25C10.4823 11.1484 8.97053 12.625 7.10725 12.625ZM12.7323 7C13.0135 7 13.2948 7.28125 13.2948 7.5625V9.25C13.2948 12.3789 10.9393 14.9805 7.951 15.4023V16.5625H9.91975C10.201 16.5625 10.4823 16.8438 10.4823 17.125V17.6875C10.4823 18.0039 10.201 18.25 9.91975 18.25H4.29475C3.97834 18.25 3.73225 18.0039 3.73225 17.6875V17.125C3.73225 16.8438 3.97834 16.5625 4.29475 16.5625H6.2635V15.3672C3.13459 14.9453 0.919751 12.1328 0.919751 9.00391V7.5625C0.919751 7.28125 1.16584 7 1.48225 7H2.04475C2.326 7 2.60725 7.28125 2.60725 7.5625V9.07422C2.60725 11.4297 4.29475 13.5039 6.65022 13.75C9.32209 13.9961 11.6073 11.8867 11.6073 9.25V7.5625C11.6073 7.28125 11.8533 7 12.1698 7H12.7323Z" fill="#9D9D9D"/>
</svg>
