<svg width="20" height="15" viewBox="0 0 20 15" fill="none" xmlns="http://www.w3.org/2000/svg">
<path d="M18.373 0.015625L18.8887 2.9375H17.4707L17.2559 1.60547L9.47852 2.9375H1.31445L18.373 0.015625ZM0.541016 3.625H1.22852H2.25977H19.1035H19.791V4.3125V13.9375V14.625H19.1035H1.22852H0.541016V13.9375V5.34375V4.3125V3.625ZM3.93555 5C3.96419 5.14323 3.97852 5.25781 3.97852 5.34375C3.97852 5.83073 3.80664 6.24609 3.46289 6.58984C3.14779 6.90495 2.74674 7.0625 2.25977 7.0625C2.17383 7.0625 2.05924 7.04818 1.91602 7.01953V11.2305C2.05924 11.2018 2.17383 11.1875 2.25977 11.1875C2.74674 11.1875 3.14779 11.3594 3.46289 11.7031C3.80664 12.0182 3.97852 12.4193 3.97852 12.9062C3.97852 12.9922 3.96419 13.1068 3.93555 13.25H16.3965C16.3678 13.1068 16.3535 12.9922 16.3535 12.9062C16.3535 12.4193 16.5111 12.0182 16.8262 11.7031C17.1699 11.3594 17.5853 11.1875 18.0723 11.1875C18.1582 11.1875 18.2728 11.2018 18.416 11.2305V7.01953C18.2728 7.04818 18.1582 7.0625 18.0723 7.0625C17.5853 7.0625 17.1699 6.90495 16.8262 6.58984C16.5111 6.24609 16.3535 5.83073 16.3535 5.34375C16.3535 5.25781 16.3678 5.14323 16.3965 5H3.93555ZM7.7168 6.71875C8.4043 6.03125 9.2207 5.6875 10.166 5.6875C11.1113 5.6875 11.9134 6.03125 12.5723 6.71875C13.2598 7.3776 13.6035 8.17969 13.6035 9.125C13.6035 10.0703 13.2598 10.8867 12.5723 11.5742C11.9134 12.2331 11.1113 12.5625 10.166 12.5625C9.2207 12.5625 8.4043 12.2331 7.7168 11.5742C7.05794 10.8867 6.72852 10.0703 6.72852 9.125C6.72852 8.17969 7.05794 7.3776 7.7168 6.71875ZM11.627 7.66406C11.2259 7.26302 10.7389 7.0625 10.166 7.0625C9.5931 7.0625 9.10612 7.26302 8.70508 7.66406C8.30404 8.0651 8.10352 8.55208 8.10352 9.125C8.10352 9.69792 8.30404 10.1849 8.70508 10.5859C9.10612 10.987 9.5931 11.1875 10.166 11.1875C10.7389 11.1875 11.2259 10.987 11.627 10.5859C12.028 10.1849 12.2285 9.69792 12.2285 9.125C12.2285 8.55208 12.028 8.0651 11.627 7.66406Z" fill="#202224"/>
</svg>
